<svg version="1.1" id="Layer_1" xmlns="http://www.w3.org/2000/svg" xmlns:xlink="http://www.w3.org/1999/xlink" x="0px" y="0px"
	 width="100%" viewBox="0 0 1024 1024" enable-background="new 0 0 1024 1024" xml:space="preserve">
<path fill="#FFFFFF" opacity="1.000000" stroke="none"
	d="
M553.721313,381.225037 
	C545.437195,367.716797 537.375122,354.497498 529.240601,341.322906 
	C527.933350,339.205750 526.437439,337.170410 524.798828,335.298462 
	C517.250916,326.675507 508.317932,326.896851 501.275299,335.987457 
	C492.363312,347.490967 485.884583,360.526550 478.530792,372.992950 
	C452.896210,416.449463 427.495178,460.043945 402.056519,503.615814 
	C374.684906,550.498474 347.383026,597.421814 320.008575,644.302856 
	C317.829163,648.035217 315.473236,651.685913 312.937805,655.184998 
	C305.422241,665.556885 294.516815,669.034241 282.408386,669.230286 
	C265.914612,669.497375 249.413132,669.295288 232.914978,669.277283 
	C231.753693,669.276001 230.573929,669.240051 229.434326,669.040161 
	C219.510071,667.299255 218.100861,664.425171 223.230057,655.609558 
	C237.213333,631.576111 251.294479,607.599548 265.361542,583.614990 
	C293.077301,536.359192 320.786865,489.099640 348.542389,441.867188 
	C372.077271,401.817047 395.686768,361.810760 419.237000,321.769623 
	C433.081055,298.231384 447.044373,274.760925 460.635986,251.077393 
	C471.625793,231.927551 487.481415,221.313828 509.860687,220.526047 
	C517.063171,220.272507 524.104675,220.655197 531.072083,222.175446 
	C543.537292,224.895309 552.544617,232.613083 559.196167,243.065094 
	C575.557068,268.773987 590.663513,295.243805 606.226074,321.436249 
	C633.607910,367.521027 660.948792,413.630127 688.294067,459.736633 
	C714.284058,503.558075 740.250000,547.393860 766.242065,591.214050 
	C778.814209,612.409363 791.425598,633.581360 804.006592,654.771423 
	C805.025940,656.488403 806.162720,658.181274 806.869568,660.028931 
	C808.402893,664.036804 806.878723,667.077209 802.723572,667.987305 
	C799.499329,668.693481 796.160828,669.190247 792.868225,669.218933 
	C777.371033,669.353821 761.871887,669.238464 746.373962,669.321167 
	C730.164673,669.407715 717.610168,663.756348 709.212097,648.890808 
	C693.080383,620.335876 676.226868,592.187927 659.617065,563.903931 
	C647.393250,543.088440 635.098511,522.314453 622.792419,501.547455 
	C620.410339,497.527618 617.757446,493.658203 614.179260,490.586761 
	C609.025879,486.163177 603.955505,486.269196 599.119873,490.949371 
	C592.306580,497.543579 588.472717,506.211243 583.578674,514.094055 
	C563.994202,545.638611 544.689331,577.356995 525.336304,609.044861 
	C520.762268,616.534302 515.098083,622.534302 506.193329,624.689880 
	C496.597992,627.012695 488.499573,624.377625 483.178497,616.004517 
	C466.480621,589.728882 450.053192,563.281067 433.582062,536.861877 
	C429.392120,530.141296 429.746033,523.174255 433.523315,516.457520 
	C441.363739,502.515869 450.185455,489.171814 458.926086,475.789795 
	C461.887695,471.255554 465.556763,471.601593 468.839630,476.112152 
	C475.989990,485.936432 483.168488,495.740143 490.337769,505.550629 
	C490.730377,506.087860 491.119324,506.630768 491.550934,507.136047 
	C496.621246,513.071655 498.952362,513.088440 503.289673,506.488617 
	C510.148132,496.052460 516.747620,485.444977 523.387817,474.866730 
	C534.717773,456.817291 546.018005,438.749054 557.266357,420.648682 
	C558.842407,418.112579 560.057312,415.351715 561.433228,412.691650 
	C564.766785,406.246979 564.434692,399.842407 561.003906,393.588715 
	C558.762451,389.502899 556.288940,385.544342 553.721313,381.225037 
z"/>
</svg>